# Character hitbox reference (metres). Standing boxes solid, crouched boxes and collision hull as wires.
o Hitbox_Head
v -0.1200 1.5300 -0.1200
v 0.1200 1.5300 -0.1200
v 0.1200 1.7900 -0.1200
v -0.1200 1.7900 -0.1200
v -0.1200 1.5300 0.1200
v 0.1200 1.5300 0.1200
v 0.1200 1.7900 0.1200
v -0.1200 1.7900 0.1200
f 1 4 3 2
f 5 6 7 8
f 1 2 6 5
f 2 3 7 6
f 3 4 8 7
f 4 1 5 8
o Hitbox_Chest
v -0.2300 1.0500 -0.1400
v 0.2300 1.0500 -0.1400
v 0.2300 1.5000 -0.1400
v -0.2300 1.5000 -0.1400
v -0.2300 1.0500 0.1400
v 0.2300 1.0500 0.1400
v 0.2300 1.5000 0.1400
v -0.2300 1.5000 0.1400
f 9 12 11 10
f 13 14 15 16
f 9 10 14 13
f 10 11 15 14
f 11 12 16 15
f 12 9 13 16
o Hitbox_Stomach
v -0.1900 0.8000 -0.1300
v 0.1900 0.8000 -0.1300
v 0.1900 1.0500 -0.1300
v -0.1900 1.0500 -0.1300
v -0.1900 0.8000 0.1300
v 0.1900 0.8000 0.1300
v 0.1900 1.0500 0.1300
v -0.1900 1.0500 0.1300
f 17 20 19 18
f 21 22 23 24
f 17 18 22 21
f 18 19 23 22
f 19 20 24 23
f 20 17 21 24
o Hitbox_Legs
v -0.2000 0.0000 -0.1400
v 0.2000 0.0000 -0.1400
v 0.2000 0.8000 -0.1400
v -0.2000 0.8000 -0.1400
v -0.2000 0.0000 0.1400
v 0.2000 0.0000 0.1400
v 0.2000 0.8000 0.1400
v -0.2000 0.8000 0.1400
f 25 28 27 26
f 29 30 31 32
f 25 26 30 29
f 26 27 31 30
f 27 28 32 31
f 28 25 29 32
o Crouched_Head
v -0.1200 1.0997 -0.1200
v 0.1200 1.0997 -0.1200
v 0.1200 1.2866 -0.1200
v -0.1200 1.2866 -0.1200
v -0.1200 1.0997 0.1200
v 0.1200 1.0997 0.1200
v 0.1200 1.2866 0.1200
v -0.1200 1.2866 0.1200
l 33 34
l 34 35
l 35 36
l 36 33
l 37 38
l 38 39
l 39 40
l 40 37
l 33 37
l 34 38
l 35 39
l 36 40
o Crouched_Chest
v -0.2300 0.7547 -0.1400
v 0.2300 0.7547 -0.1400
v 0.2300 1.0781 -0.1400
v -0.2300 1.0781 -0.1400
v -0.2300 0.7547 0.1400
v 0.2300 0.7547 0.1400
v 0.2300 1.0781 0.1400
v -0.2300 1.0781 0.1400
l 41 42
l 42 43
l 43 44
l 44 41
l 45 46
l 46 47
l 47 48
l 48 45
l 41 45
l 42 46
l 43 47
l 44 48
o Crouched_Stomach
v -0.1900 0.5750 -0.1300
v 0.1900 0.5750 -0.1300
v 0.1900 0.7547 -0.1300
v -0.1900 0.7547 -0.1300
v -0.1900 0.5750 0.1300
v 0.1900 0.5750 0.1300
v 0.1900 0.7547 0.1300
v -0.1900 0.7547 0.1300
l 49 50
l 50 51
l 51 52
l 52 49
l 53 54
l 54 55
l 55 56
l 56 53
l 49 53
l 50 54
l 51 55
l 52 56
o Crouched_Legs
v -0.2000 0.0000 -0.1400
v 0.2000 0.0000 -0.1400
v 0.2000 0.5750 -0.1400
v -0.2000 0.5750 -0.1400
v -0.2000 0.0000 0.1400
v 0.2000 0.0000 0.1400
v 0.2000 0.5750 0.1400
v -0.2000 0.5750 0.1400
l 57 58
l 58 59
l 59 60
l 60 57
l 61 62
l 62 63
l 63 64
l 64 61
l 57 61
l 58 62
l 59 63
l 60 64
o Collision_Standing
v -0.4064 0.0000 -0.4064
v 0.4064 0.0000 -0.4064
v 0.4064 1.8288 -0.4064
v -0.4064 1.8288 -0.4064
v -0.4064 0.0000 0.4064
v 0.4064 0.0000 0.4064
v 0.4064 1.8288 0.4064
v -0.4064 1.8288 0.4064
l 65 66
l 66 67
l 67 68
l 68 65
l 69 70
l 70 71
l 71 72
l 72 69
l 65 69
l 66 70
l 67 71
l 68 72
o Collision_Crouched
v -0.4064 0.0000 -0.4064
v 0.4064 0.0000 -0.4064
v 0.4064 1.3716 -0.4064
v -0.4064 1.3716 -0.4064
v -0.4064 0.0000 0.4064
v 0.4064 0.0000 0.4064
v 0.4064 1.3716 0.4064
v -0.4064 1.3716 0.4064
l 73 74
l 74 75
l 75 76
l 76 73
l 77 78
l 78 79
l 79 80
l 80 77
l 73 77
l 74 78
l 75 79
l 76 80
o Eye_Height
v -0.1000 1.6256 0.0000
v 0.1000 1.6256 0.0000
v 0.0000 1.6256 -0.1000
v 0.0000 1.6256 0.1000
l 81 82
l 83 84
o Forward
v 0.0000 0.0100 0.0000
v 0.0000 0.0100 0.6000
v -0.0800 0.0100 0.4800
v 0.0800 0.0100 0.4800
l 85 86
l 86 87
l 86 88
